<?xml version="1.0" encoding="UTF-8" standalone="no"?>
<!-- Created with Inkscape (http://www.inkscape.org/) -->

<svg
   xmlns:dc="http://purl.org/dc/elements/1.1/"
   xmlns:cc="http://creativecommons.org/ns#"
   xmlns:rdf="http://www.w3.org/1999/02/22-rdf-syntax-ns#"
   xmlns:svg="http://www.w3.org/2000/svg"
   xmlns="http://www.w3.org/2000/svg"
   xmlns:sodipodi="http://sodipodi.sourceforge.net/DTD/sodipodi-0.dtd"
   xmlns:inkscape="http://www.inkscape.org/namespaces/inkscape"
   width="575"
   height="800"
   id="svg2890"
   version="1.1"
   inkscape:version="0.47 r22583"
   sodipodi:docname="a.svg"
   transform="matrix(1.000000,0.000000,0.000000,1.000000,0.000000,0.000000)">
  <sodipodi:namedview
     id="base"
     pagecolor="#ffffff"
     bordercolor="#aaaaaa"
     borderopacity="1"
     inkscape:pageopacity="0.0"
     inkscape:pageshadow="2"
     inkscape:zoom="1"
     inkscape:cx="286.26027"
     inkscape:cy="231.9211"
     inkscape:document-units="px"
     inkscape:current-layer="layer1"
     showgrid="true"
     inkscape:window-width="1280"
     inkscape:window-height="752"
     inkscape:window-x="-3"
     inkscape:window-y="0"
     inkscape:window-maximized="1"
     objecttolerance="4"
     guidetolerance="5"
     showguides="true"
     inkscape:guide-bbox="true"
     inkscape:showpageshadow="false"
     showborder="true">
    <inkscape:grid
       type="xygrid"
       id="grid2816"
       empspacing="25"
       visible="true"
       enabled="true"
       snapvisiblegridlinesonly="true"
       dotted="false"
       empcolor="#3a3ac5"
       empopacity="0.09803922" />
    <sodipodi:guide
       orientation="0,1"
       position="-350,-200"
       id="guide2818" />
    <sodipodi:guide
       orientation="1,0"
       position="25,-300"
       id="guide2820" />
    <sodipodi:guide
       orientation="1,0"
       position="550,-300"
       id="guide2822" />
    <sodipodi:guide
       orientation="0,1"
       position="-350,0"
       id="guide2824" />
    <sodipodi:guide
       orientation="0,1"
       position="-350,525"
       id="guide2847" />
    <sodipodi:guide
       orientation="0,1"
       position="-350,700"
       id="guide2849" />
    <sodipodi:guide
       orientation="0,1"
       position="-350,800"
       id="guide3649" />
    <sodipodi:guide
       orientation="1,0"
       position="0,-300"
       id="guide3653" />
    <sodipodi:guide
       orientation="1,0"
       position="575,-300"
       id="guide3655" />
    <sodipodi:guide
       orientation="0,1"
       position="-8850,250"
       id="guide3659" />
    <sodipodi:guide
       orientation="0,1"
       position="-550,-900"
       id="guide3669" />
    <sodipodi:guide
       orientation="0,1"
       position="-12225,350"
       id="guide3681" />
  </sodipodi:namedview>
  <defs
     id="defs2892">
    <inkscape:perspective
       sodipodi:type="inkscape:persp3d"
       inkscape:vp_x="0 : 526.18109 : 1"
       inkscape:vp_y="0 : 1000 : 0"
       inkscape:vp_z="744.09448 : 526.18109 : 1"
       inkscape:persp3d-origin="372.04724 : 350.78739 : 1"
       id="perspective2898" />
  </defs>
  <metadata
     id="metadata2895">
    <rdf:RDF>
      <cc:Work
         rdf:about="">
        <dc:format>image/svg+xml</dc:format>
        <dc:type
           rdf:resource="http://purl.org/dc/dcmitype/StillImage" />
        <dc:title />
      </cc:Work>
    </rdf:RDF>
  </metadata>
  <g
     inkscape:label="Layer 1"
     inkscape:groupmode="layer"
     id="layer1"
     transform="matrix(1.000000,0.000000,0.000000,1.000000,0.000000,-1305.000000)">
    <text
       xml:space="preserve"
       style="font-size:1110.18688965px;font-style:normal;font-variant:normal;font-weight:bold;font-stretch:normal;text-align:start;line-height:100%;writing-mode:lr-tb;text-anchor:start;opacity:0.59670781;fill:#000000;fill-opacity:1;stroke:none;font-family:Inconsolata;-inkscape-font-specification:Inconsolata Bold"
       x="1058"
       y="2104.7244"
       id="text2851"
       sodipodi:linespacing="100%"><tspan
         sodipodi:role="line"
         id="tspan3691"
         x="1058"
         y="2104.7244">bg;</tspan></text>
    <text
       sodipodi:linespacing="100%"
       id="text3629"
       y="2105"
       x="-3100"
       style="font-size:1039.58081055px;font-style:normal;font-variant:normal;font-weight:300;font-stretch:normal;text-align:start;line-height:100%;writing-mode:lr-tb;text-anchor:start;opacity:0.59670781;fill:#000000;fill-opacity:1;stroke:none;font-family:Muli;-inkscape-font-specification:Muli Light"
       xml:space="preserve"><tspan
         sodipodi:role="line"
         id="tspan3727"
         x="-3100"
         y="2105">oa</tspan></text>
    <text
       xml:space="preserve"
       style="font-size:890.6105957px;font-style:normal;font-variant:normal;font-weight:normal;font-stretch:normal;text-align:start;line-height:100%;writing-mode:lr-tb;text-anchor:start;opacity:0.59670781;fill:#000000;fill-opacity:1;stroke:none;font-family:Aaargh;-inkscape-font-specification:Aaargh"
       x="-2500"
       y="504.7244"
       id="text3633"
       sodipodi:linespacing="100%"><tspan
         sodipodi:role="line"
         id="tspan3645"
         x="-2500"
         y="504.7244">Mbg</tspan></text>
    <text
       xml:space="preserve"
       style="font-size:16px;font-style:normal;font-variant:normal;font-weight:300;font-stretch:normal;text-align:end;line-height:100%;writing-mode:lr-tb;text-anchor:end;opacity:1;fill:#000000;fill-opacity:1;stroke:none;font-family:Muli;-inkscape-font-specification:Muli Light"
       x="-12.21875"
       y="1854.7244"
       id="text3675"
       sodipodi:linespacing="100%"><tspan
         sodipodi:role="line"
         id="tspan3679"
         x="-12.21875"
         y="1854.7244">Lowercase-dash-support</tspan></text>
    <text
       sodipodi:linespacing="100%"
       id="text3683"
       y="1754.7244"
       x="-12.21875"
       style="font-size:16px;font-style:normal;font-variant:normal;font-weight:300;font-stretch:normal;text-align:end;line-height:100%;writing-mode:lr-tb;text-anchor:end;opacity:1;fill:#000000;fill-opacity:1;stroke:none;font-family:Muli;-inkscape-font-specification:Muli Light"
       xml:space="preserve"><tspan
         sodipodi:role="line"
         id="tspan3687"
         x="-12.21875"
         y="1754.7244">Capital-dash-support</tspan></text>
    <text
       xml:space="preserve"
       style="font-size:16px;font-style:normal;font-variant:normal;font-weight:300;font-stretch:normal;text-align:end;line-height:100%;writing-mode:lr-tb;text-anchor:end;opacity:1;fill:#000000;fill-opacity:1;stroke:none;font-family:Muli;-inkscape-font-specification:Muli Light"
       x="-12.21875"
       y="1604.7244"
       id="text3693"
       sodipodi:linespacing="100%"><tspan
         sodipodi:role="line"
         id="tspan3697"
         x="-12.21875"
         y="1604.7244">x-height</tspan></text>
    <text
       sodipodi:linespacing="100%"
       id="text3699"
       y="1429.7244"
       x="-12.21875"
       style="font-size:16px;font-style:normal;font-variant:normal;font-weight:300;font-stretch:normal;text-align:end;line-height:100%;writing-mode:lr-tb;text-anchor:end;opacity:1;fill:#000000;fill-opacity:1;stroke:none;font-family:Muli;-inkscape-font-specification:Muli Light"
       xml:space="preserve"><tspan
         sodipodi:role="line"
         id="tspan3703"
         x="-12.21875"
         y="1429.7244">Cap-height</tspan></text>
    <text
       xml:space="preserve"
       style="font-size:16px;font-style:normal;font-variant:normal;font-weight:300;font-stretch:normal;text-align:end;line-height:100%;writing-mode:lr-tb;text-anchor:end;opacity:1;fill:#000000;fill-opacity:1;stroke:none;font-family:Muli;-inkscape-font-specification:Muli Light"
       x="-12.21875"
       y="1329.7244"
       id="text3705"
       sodipodi:linespacing="100%"><tspan
         sodipodi:role="line"
         id="tspan3709"
         x="-12.21875"
         y="1329.7244">Ascent</tspan></text>
    <text
       xml:space="preserve"
       style="font-size:16px;font-style:normal;font-variant:normal;font-weight:300;font-stretch:normal;text-align:end;line-height:100%;writing-mode:lr-tb;text-anchor:end;opacity:1;fill:#000000;fill-opacity:1;stroke:none;font-family:Muli;-inkscape-font-specification:Muli Light"
       x="-12.21875"
       y="2104.7244"
       id="text3711"
       sodipodi:linespacing="100%"><tspan
         sodipodi:role="line"
         id="tspan3715"
         x="-12.21875"
         y="2104.7244">Baseline</tspan></text>
    <text
       sodipodi:linespacing="100%"
       id="text3717"
       y="2305"
       x="-13.375"
       style="font-size:16px;font-style:normal;font-variant:normal;font-weight:300;font-stretch:normal;text-align:end;line-height:100%;writing-mode:lr-tb;text-anchor:end;opacity:1;fill:#000000;fill-opacity:1;stroke:none;font-family:Muli;-inkscape-font-specification:Muli Light"
       xml:space="preserve"><tspan
         sodipodi:role="line"
         id="tspan3721"
         x="-13.375"
         y="2305">Descent</tspan></text>
    <rect
       style="fill:#000000;fill-opacity:0.05394191;stroke:none"
       id="rect3723"
       width="575"
       height="1000"
       x="0"
       y="1.1368684e-13"
       transform="translate(0,1304.7244)" />
    <rect
       y="1579.7244"
       x="0"
       height="525.00006"
       width="575"
       id="rect3725"
       style="fill:#000000;fill-opacity:0.05394191;stroke:none" />
    <path
       style="fill:#9f0000;fill-opacity:0.7759336;stroke:none"
       d="m -1308.2187,2482.6875 c -144.9748,0 -262.5,117.5253 -262.5,262.5 0,144.9747 117.5252,262.5 262.5,262.5 84.8326,0 160.2393,-40.25 208.2187,-102.6875 l 31,115.625 48.2813,-12.9375 -44.0313,-164.3125 c 0.01,-0.013 0.026,-0.019 0.031,-0.031 l -32.0938,-119.7813 c 0.01,0.052 -0.01,0.1047 0,0.1563 l -17.625,-65.8125 c 0.019,0.043 0.043,0.082 0.062,0.125 l -20.1875,-75.3438 -0.031,0 -26.7813,-100 -9.3437,0 -15.6875,0 -109.3125,0 0,0.3125 c -4.1433,-0.1946 -8.3087,-0.3125 -12.5,-0.3125 z m 0,50 12.5,0 95.9375,0 82.1562,306.5313 c -34.6937,70.1915 -106.9963,118.4687 -190.5937,118.4687 -117.3606,0 -212.5,-95.1395 -212.5,-212.5 0,-117.3605 95.1394,-212.5 212.5,-212.5 z"
       id="path3729" />
    <path
       style="fill:#9f0000;fill-opacity:0.7759336;stroke:none"
       d="m -558.21879,2357.6875 c -144.9747,0 -262.5,117.5253 -262.5,262.5 0,144.9747 117.5253,262.5 262.5,262.5 84.82731,0 160.23885,-40.2568 208.21879,-102.6875 l 31,115.625 48.28125,-12.9375 -122.9375,-458.8125 -0.0312,0 -2.8125,-10.4687 c -44.57126,-34.9056 -100.71699,-55.7188 -161.71879,-55.7188 z m 0,50 c 43.6787,0 84.26831,13.2125 118.03129,35.8125 l 72.5625,270.7188 c -34.69372,70.1915 -106.99626,118.4687 -190.59379,118.4687 -117.3605,0 -212.5,-95.1395 -212.5,-212.5 0,-117.3605 95.1395,-212.5 212.5,-212.5 z"
       id="path4072" />
    <path
       style="fill:#9f0000;fill-opacity:0.7759336;stroke:none"
       d="m -458.09375,3121 c -144.9748,0 -262.5,117.5253 -262.5,262.5 0,144.9747 117.5252,262.5 262.5,262.5 75.71424,0 143.93482,-32.0644 191.84375,-83.3437 l 50.125,104.9062 L -171,3646 -232.34375,3517.5625 c 0.005,-0.01 -0.005,-0.024 0,-0.031 l -27.46875,-57.4688 -133.21875,-278.9062 -27.4375,-57.4688 c -12.28997,-1.7644 -24.84686,-2.6875 -37.625,-2.6875 z m 0,50 c 1.5973,0 3.19242,0.027 4.78125,0.062 l 163.46875,342.1875 c -38.85695,50.3228 -99.75409,82.75 -168.25,82.75 -117.3606,0 -212.5,-95.1395 -212.5,-212.5 0,-117.3605 95.1394,-212.5 212.5,-212.5 z"
       id="path4076" />
    <path
       id="path4085"
       d="m 698.47199,2723.1302 c -2.42825,0 -4.39674,1.9685 -4.39674,4.3968 0,2.4282 1.96849,4.3967 4.39674,4.3967 1.42082,0 2.68392,-0.6743 3.48756,-1.7199 l 0.51924,1.9366 0.80868,-0.2167 -2.05913,-7.6849 -5.1e-4,0 -0.0471,-0.1753 c -0.74655,-0.5847 -1.68696,-0.9333 -2.70872,-0.9333 z m 0,0.8375 c 0.73159,0 1.41145,0.2213 1.97696,0.5998 l 1.21539,4.5344 c -0.5811,1.1757 -1.79214,1.9843 -3.19235,1.9843 -1.96573,0 -3.55926,-1.5935 -3.55926,-3.5592 0,-1.9657 1.59353,-3.5593 3.55926,-3.5593 z"
       style="fill:#000000;fill-opacity:1;stroke:none" />
    <text
       xml:space="preserve"
       style="font-size:15.14442921px;font-style:normal;font-variant:normal;font-weight:300;font-stretch:normal;text-align:start;line-height:100%;writing-mode:lr-tb;text-anchor:start;fill:#000000;fill-opacity:1;stroke:none;font-family:Muli;-inkscape-font-specification:Muli Light"
       x="812.4646"
       y="2729.6106"
       id="text4087"
       sodipodi:linespacing="100%"><tspan
         sodipodi:role="line"
         id="tspan4106"
         x="812.4646"
         y="2729.6106">nother ONE thing</tspan></text>
    <path
       id="path4104"
       d="m 695.7703,2745.4459 c -2.53422,0 -4.58861,2.0544 -4.58861,4.5887 0,2.5341 2.05439,4.5885 4.58861,4.5885 1.32351,0 2.51602,-0.5606 3.35349,-1.4569 L 700,2755 l 0.7888,-0.3769 -1.07232,-2.2452 c 0,-3e-4 0,-3e-4 0,0 l -0.48016,-1.0046 -2.32872,-4.8753 -0.47961,-1.0046 c -0.21483,-0.032 -0.43432,-0.048 -0.65769,-0.048 z m 0,0.874 c 0.0279,0 0.0557,0 0.0836,0 l 2.85748,5.9815 c -0.67923,0.8797 -1.74373,1.4466 -2.94106,1.4466 -2.05152,0 -3.71459,-1.6631 -3.71459,-3.7147 0,-2.0514 1.66307,-3.7145 3.71459,-3.7145 z"
       style="fill:#000000;fill-opacity:1;stroke:none" />
    <path
       style="fill:#9f0000;fill-opacity:0.7759336;stroke:none"
       d="m -1387.5,1755 c -144.9748,0 -262.5,117.5253 -262.5,262.5 0,144.9747 117.5252,262.5 262.5,262.5 87.3966,0 164.7886,-42.719 212.5,-108.4062 l 0,-154.0938 c 0,117.3605 -95.1395,212.5 -212.5,212.5 -117.3605,0 -212.5,-95.1395 -212.5,-212.5 0,-117.3605 95.1395,-212.5 212.5,-212.5 l 154.0625,0 c -43.2667,-31.4345 -96.4854,-50 -154.0625,-50 z m 212.5,262.5 0,-87.5 -18.8125,0 c 12.0769,26.6881 18.8125,56.3014 18.8125,87.5 z"
       id="path4108" />
    <rect
       style="fill:#8c0000;fill-opacity:0.58506224;stroke:none"
       id="rect4110"
       width="50"
       height="525"
       x="-1225"
       y="1755" />
    <path
       id="path4142"
       d="m 737.39029,2729.8391 c -2.69501,0 -4.87975,2.1847 -4.87975,4.8797 0,2.6951 2.18474,4.8798 4.87975,4.8798 1.577,0 2.97877,-0.7482 3.87068,-1.9089 l 0.57628,2.1494 0.89753,-0.2405 -0.81852,-3.0545 c 1.8e-4,-2e-4 4.8e-4,-3e-4 5.7e-4,-6e-4 l -0.59661,-2.2266 c 1.9e-4,9e-4 -1.8e-4,0 0,0 l -0.32764,-1.2235 c 3.6e-4,8e-4 8e-4,0 10e-4,0 l -0.37528,-1.4006 -5.8e-4,0 -0.49785,-1.859 -0.17369,0 -0.29163,0 -2.03206,0 0,0.01 c -0.077,0 -0.15446,-0.01 -0.23237,-0.01 z m 0,0.9295 0.23237,0 1.78343,0 1.52724,5.6982 c -0.64493,1.3049 -1.98901,2.2023 -3.54304,2.2023 -2.18168,0 -3.95027,-1.7686 -3.95027,-3.9503 0,-2.1816 1.76859,-3.9502 3.95027,-3.9502 z"
       style="fill:#000000;fill-opacity:1;stroke:#000000;stroke-opacity:0.14522825" />
    <path
       style="fill:#3c2828;fill-opacity:0.78431373;stroke:none"
       d="M 287.5,1580 C 156.33237,1580 50,1697.5253 50,1842.5 c 0,144.9747 106.33237,262.5 237.5,262.5 92.39717,0 172.4862,-58.3198 211.75,-143.4687 l 26.5,152.0625 L 575,2105 522.625,1805.375 C 506.30509,1677.9849 407.26333,1580 287.5,1580 z m 0,50 C 391.05339,1630 475,1725.1395 475,1842.5 475,1959.8605 391.05339,2055 287.5,2055 183.94661,2055 100,1959.8605 100,1842.5 100,1725.1395 183.94661,1630 287.5,1630 z"
       id="path4144"
       sodipodi:nodetypes="cssccccccsssc" />
    <path
       id="path4149"
       d="m -1075,1580 c -131.1676,0 -237.5,117.5253 -237.5,262.5 0,144.9747 106.3324,262.5 237.5,262.5 131.16763,0 237.5,-117.5253 237.5,-262.5 0,-144.9747 -106.33237,-262.5 -237.5,-262.5 z m 0,50 c 103.55339,0 187.5,95.1395 187.5,212.5 0,117.3605 -83.94661,212.5 -187.5,212.5 -103.5534,0 -187.5,-95.1395 -187.5,-212.5 0,-117.3605 83.9466,-212.5 187.5,-212.5 z"
       style="fill:#3c2828;fill-opacity:0.78431373;stroke:none" />
    <path
       style="fill:#3c2828;fill-opacity:0.78431373;stroke:none"
       d="m 2087.9375,2524.1562 c -131.1676,0 -237.5,117.5253 -237.5,262.5 0,144.9747 106.3324,262.5 237.5,262.5 92.6453,0 172.9132,-58.6344 212.0625,-144.1562 l 30.375,177.2187 49.2813,-8.4062 -94.2813,-549.6563 -197.4375,0 z m 0,50 155.2813,0 30.4375,176.7188 c 1.6633,11.6337 1.7812,23.5868 1.7812,35.7812 0,117.3605 -83.9466,212.5 -187.5,212.5 -103.5534,0 -187.5,-95.1395 -187.5,-212.5 0,-117.3605 83.9466,-212.5 187.5,-212.5 z"
       id="path4151"
       sodipodi:nodetypes="cssccccccccsssc" />
    <path
       style="fill:#3c2828;fill-opacity:0.78431373;stroke:none"
       d="m -1150,1580 c -131.1676,0 -237.5,117.5253 -237.5,262.5 0,144.9747 106.3324,262.5 237.5,262.5 131.1676,0 237.5,-117.5253 237.5,-262.5 0,-144.9747 -106.3324,-262.5 -237.5,-262.5 z m 0,50 c 103.5534,0 187.5,95.1395 187.5,212.5 0,117.3605 -83.9466,212.5 -187.5,212.5 -103.5534,0 -187.5,-95.1395 -187.5,-212.5 0,-117.3605 83.9466,-212.5 187.5,-212.5 z"
       id="path4153" />
    <path
       sodipodi:nodetypes="cssccccccsssc"
       id="path4159"
       d="m 823.13855,2840.8054 c -20.91265,0 -37.86569,18.7367 -37.86569,41.8504 0,23.1147 16.95304,41.8524 37.86569,41.8524 14.73115,0 27.50021,-9.2966 33.76011,-22.8733 l 4.22498,24.2424 7.85228,-1.3691 -8.35047,-47.7713 c -2.60183,-20.3091 -18.3926,-35.9315 -37.4869,-35.9315 z m 0,7.9708 c 16.50986,0 29.89388,15.1692 29.89388,33.8796 0,18.7114 -13.38402,33.8805 -29.89388,33.8805 -16.50998,0 -29.89389,-15.1691 -29.89389,-33.8805 0,-18.7104 13.38391,-33.8796 29.89389,-33.8796 z"
       style="fill:#000000;fill-opacity:1;stroke:none" />
    <path
       sodipodi:nodetypes="cssccccccccccccsssc"
       id="path4174"
       d="m 807.59231,2671.9937 c -1.9423,0 -3.51684,1.7403 -3.51684,3.887 0,2.1468 1.57454,3.8871 3.51684,3.8871 1.37185,0 2.56045,-0.8683 3.14016,-2.1346 l 0.38779,2.2596 0.72974,-0.125 -1.33409,-7.7741 -0.14715,0 -0.60435,0 -2.1721,0 z m 0,0.7404 2.06475,0 0.23461,0 0.44747,2.5914 0,0 c 0.0283,0.1802 0.0296,0.3659 0.0296,0.5552 0,1.7379 -1.24306,3.1468 -2.77646,3.1468 -1.53338,0 -2.77645,-1.4089 -2.77645,-3.1468 0,-1.7377 1.24307,-3.1466 2.77645,-3.1466 z"
       style="fill:#000000;fill-opacity:1;stroke:none;stroke-width:0.78389418000000000;stroke-opacity:0.34854772000000001" />
    <text
       sodipodi:linespacing="100%"
       id="text4176"
       y="2679.4414"
       x="812.4646"
       style="font-size:15.14442921px;font-style:normal;font-variant:normal;font-weight:300;font-stretch:normal;text-align:start;line-height:100%;writing-mode:lr-tb;text-anchor:start;fill:#000000;fill-opacity:1;stroke:none;font-family:Muli;-inkscape-font-specification:Muli Light"
       xml:space="preserve"><tspan
         y="2679.4414"
         x="812.4646"
         id="tspan4178"
         sodipodi:role="line">nother ONE thing</tspan></text>
    <text
       xml:space="preserve"
       style="font-size:15.14442921px;font-style:normal;font-variant:normal;font-weight:300;font-stretch:normal;text-align:start;line-height:100%;writing-mode:lr-tb;text-anchor:start;fill:#000000;fill-opacity:1;stroke:none;font-family:Muli;-inkscape-font-specification:Muli Light"
       x="812.4646"
       y="2641.4414"
       id="text4189"
       sodipodi:linespacing="100%"><tspan
         sodipodi:role="line"
         id="tspan4191"
         x="812.4646"
         y="2641.4414">nother ONE thing</tspan></text>
    <text
       sodipodi:linespacing="100%"
       id="text4195"
       y="2620.9106"
       x="804.31342"
       style="font-size:18.23011589px;font-style:normal;font-variant:normal;font-weight:bold;font-stretch:normal;text-align:start;line-height:100%;writing-mode:lr;text-anchor:start;fill:#000000;fill-opacity:1;stroke:none;font-family:Monocore;-inkscape-font-specification:Monocore Medium"
       xml:space="preserve"><tspan
         sodipodi:role="line"
         id="tspan4199"
         x="804.31342"
         y="2620.9106">another ONE thing</tspan></text>
    <text
       xml:space="preserve"
       style="font-size:18.23011589px;font-style:normal;font-variant:normal;font-weight:bold;font-stretch:normal;text-align:start;line-height:100%;writing-mode:lr-tb;text-anchor:start;fill:#000000;fill-opacity:1;stroke:none;font-family:Inconsolata;-inkscape-font-specification:Inconsolata Medium"
       x="804.31342"
       y="2663.9106"
       id="text4201"
       sodipodi:linespacing="100%"><tspan
         y="2663.9106"
         x="804.31342"
         id="tspan4203"
         sodipodi:role="line">another ONE thing</tspan></text>
    <path
       style="fill:#000000;fill-opacity:0.3609959;stroke:none"
       d="m 1262.5,2498.0625 c -131.1676,0 -237.5,117.5253 -237.5,262.5 0,144.9747 106.3324,262.5 237.5,262.5 51.2579,0 98.6924,-17.9793 137.5,-48.5 l 0,48.5 50,0 0,-101.375 0,-161.125 0,-161.125 0,-1.375 -1,0 c -43.4936,-60.8966 -110.8561,-100 -186.5,-100 z m 0,50 c 54.3375,0 103.2554,26.2062 137.5,68.0625 l 0,288.875 c -34.2446,41.8563 -83.1625,68.0625 -137.5,68.0625 -103.5534,0 -187.5,-95.1395 -187.5,-212.5 0,-117.3605 83.9466,-212.5 187.5,-212.5 z"
       id="path4205" />
    <path
       id="path4228"
       d="m 808.33349,2696.0894 c -2.0675,0 -3.74354,1.8525 -3.74354,4.1376 0,2.2852 1.67604,4.1376 3.74354,4.1376 0.80795,0 1.55562,-0.2834 2.16731,-0.7644 l 0,0.7644 0.78812,0 0,-1.5979 0,-2.5397 0,-2.5397 0,-0.022 -0.0158,0 c -0.68556,-0.9599 -1.74735,-1.5762 -2.93967,-1.5762 z m 0,0.7881 c 0.85648,0 1.62754,0.4131 2.16731,1.0728 l 0,4.5534 c -0.53977,0.6597 -1.31083,1.0728 -2.16731,1.0728 -1.63224,0 -2.95542,-1.4996 -2.95542,-3.3495 0,-1.8498 1.32318,-3.3495 2.95542,-3.3495 z"
       style="fill:#000000;fill-opacity:1;stroke:none" />
    <text
       xml:space="preserve"
       style="font-size:15.14442921px;font-style:normal;font-variant:normal;font-weight:300;font-stretch:normal;text-align:start;line-height:100%;writing-mode:lr-tb;text-anchor:start;fill:#000000;fill-opacity:1;stroke:none;font-family:Muli;-inkscape-font-specification:Muli Light"
       x="812.4646"
       y="2704.0881"
       id="text4230"
       sodipodi:linespacing="100%"><tspan
         sodipodi:role="line"
         id="tspan4232"
         x="812.4646"
         y="2704.0881">nother ONE thing</tspan></text>
  </g>
</svg>
