<?xml version="1.0" encoding="UTF-8" standalone="no"?>
<!-- Created with Inkscape (http://www.inkscape.org/) -->

<svg
   xmlns:dc="http://purl.org/dc/elements/1.1/"
   xmlns:cc="http://creativecommons.org/ns#"
   xmlns:rdf="http://www.w3.org/1999/02/22-rdf-syntax-ns#"
   xmlns:svg="http://www.w3.org/2000/svg"
   xmlns="http://www.w3.org/2000/svg"
   xmlns:sodipodi="http://sodipodi.sourceforge.net/DTD/sodipodi-0.dtd"
   xmlns:inkscape="http://www.inkscape.org/namespaces/inkscape"
   width="575"
   height="800"
   id="svg2890"
   version="1.1"
   inkscape:version="0.47 r22583"
   sodipodi:docname="p.svg"
   transform="matrix(1.000000,0.000000,0.000000,1.000000,0.000000,0.000000)">
  <sodipodi:namedview
     id="base"
     pagecolor="#ffffff"
     bordercolor="#aaaaaa"
     borderopacity="1"
     inkscape:pageopacity="0.0"
     inkscape:pageshadow="2"
     inkscape:zoom="1"
     inkscape:cx="284.13393"
     inkscape:cy="-126.2751"
     inkscape:document-units="px"
     inkscape:current-layer="layer1"
     showgrid="false"
     inkscape:window-width="1280"
     inkscape:window-height="752"
     inkscape:window-x="0"
     inkscape:window-y="0"
     inkscape:window-maximized="0"
     objecttolerance="4"
     guidetolerance="5"
     showguides="true"
     inkscape:guide-bbox="true"
     inkscape:showpageshadow="false"
     showborder="true">
    <inkscape:grid
       type="xygrid"
       id="grid2816"
       empspacing="25"
       visible="true"
       enabled="true"
       snapvisiblegridlinesonly="true"
       dotted="false"
       empcolor="#3a3ac5"
       empopacity="0.09803922" />
    <sodipodi:guide
       orientation="0,1"
       position="-350,-200"
       id="guide2818" />
    <sodipodi:guide
       orientation="1,0"
       position="25,-300"
       id="guide2820" />
    <sodipodi:guide
       orientation="1,0"
       position="550,-300"
       id="guide2822" />
    <sodipodi:guide
       orientation="0,1"
       position="-350,0"
       id="guide2824" />
    <sodipodi:guide
       orientation="0,1"
       position="-350,525"
       id="guide2847" />
    <sodipodi:guide
       orientation="0,1"
       position="-350,700"
       id="guide2849" />
    <sodipodi:guide
       orientation="0,1"
       position="-350,800"
       id="guide3649" />
    <sodipodi:guide
       orientation="1,0"
       position="0,-300"
       id="guide3653" />
    <sodipodi:guide
       orientation="1,0"
       position="575,-300"
       id="guide3655" />
    <sodipodi:guide
       orientation="0,1"
       position="-8850,250"
       id="guide3659" />
    <sodipodi:guide
       orientation="0,1"
       position="-550,-900"
       id="guide3669" />
    <sodipodi:guide
       orientation="0,1"
       position="-12225,350"
       id="guide3681" />
  </sodipodi:namedview>
  <defs
     id="defs2892">
    <inkscape:perspective
       sodipodi:type="inkscape:persp3d"
       inkscape:vp_x="0 : 526.18109 : 1"
       inkscape:vp_y="0 : 1000 : 0"
       inkscape:vp_z="744.09448 : 526.18109 : 1"
       inkscape:persp3d-origin="372.04724 : 350.78739 : 1"
       id="perspective2898" />
    <inkscape:perspective
       id="perspective2898-7"
       inkscape:persp3d-origin="372.04724 : 350.78739 : 1"
       inkscape:vp_z="744.09448 : 526.18109 : 1"
       inkscape:vp_y="0 : 1000 : 0"
       inkscape:vp_x="0 : 526.18109 : 1"
       sodipodi:type="inkscape:persp3d" />
    <inkscape:perspective
       id="perspective3469"
       inkscape:persp3d-origin="0.5 : 0.33333333 : 1"
       inkscape:vp_z="1 : 0.5 : 1"
       inkscape:vp_y="0 : 1000 : 0"
       inkscape:vp_x="0 : 0.5 : 1"
       sodipodi:type="inkscape:persp3d" />
    <inkscape:perspective
       id="perspective2898-6"
       inkscape:persp3d-origin="372.04724 : 350.78739 : 1"
       inkscape:vp_z="744.09448 : 526.18109 : 1"
       inkscape:vp_y="0 : 1000 : 0"
       inkscape:vp_x="0 : 526.18109 : 1"
       sodipodi:type="inkscape:persp3d" />
  </defs>
  <metadata
     id="metadata2895">
    <rdf:RDF>
      <cc:Work
         rdf:about="">
        <dc:format>image/svg+xml</dc:format>
        <dc:type
           rdf:resource="http://purl.org/dc/dcmitype/StillImage" />
        <dc:title></dc:title>
      </cc:Work>
    </rdf:RDF>
  </metadata>
  <g
     inkscape:label="Layer 1"
     inkscape:groupmode="layer"
     id="layer1"
     transform="matrix(1.000000,0.000000,0.000000,1.000000,0.000000,-1305.000000)">
    <text
       xml:space="preserve"
       style="font-size:1110.18688965px;font-style:normal;font-variant:normal;font-weight:bold;font-stretch:normal;text-align:start;line-height:100%;writing-mode:lr-tb;text-anchor:start;opacity:0.59670781;fill:#000000;fill-opacity:1;stroke:none;font-family:Inconsolata;-inkscape-font-specification:Inconsolata Bold"
       x="1058"
       y="2104.7244"
       id="text2851"
       sodipodi:linespacing="100%"><tspan
         sodipodi:role="line"
         id="tspan3691"
         x="1058"
         y="2104.7244">bg;</tspan></text>
    <text
       xml:space="preserve"
       style="font-size:16px;font-style:normal;font-variant:normal;font-weight:300;font-stretch:normal;text-align:end;line-height:100%;writing-mode:lr-tb;text-anchor:end;opacity:1;fill:#000000;fill-opacity:1;stroke:none;font-family:Muli;-inkscape-font-specification:Muli Light"
       x="-12.21875"
       y="1854.7244"
       id="text3675"
       sodipodi:linespacing="100%"><tspan
         sodipodi:role="line"
         id="tspan3679"
         x="-12.21875"
         y="1854.7244">Lowercase-dash-support</tspan></text>
    <text
       sodipodi:linespacing="100%"
       id="text3683"
       y="1754.7244"
       x="-12.21875"
       style="font-size:16px;font-style:normal;font-variant:normal;font-weight:300;font-stretch:normal;text-align:end;line-height:100%;writing-mode:lr-tb;text-anchor:end;opacity:1;fill:#000000;fill-opacity:1;stroke:none;font-family:Muli;-inkscape-font-specification:Muli Light"
       xml:space="preserve"><tspan
         sodipodi:role="line"
         id="tspan3687"
         x="-12.21875"
         y="1754.7244">Capital-dash-support</tspan></text>
    <text
       xml:space="preserve"
       style="font-size:16px;font-style:normal;font-variant:normal;font-weight:300;font-stretch:normal;text-align:end;line-height:100%;writing-mode:lr-tb;text-anchor:end;opacity:1;fill:#000000;fill-opacity:1;stroke:none;font-family:Muli;-inkscape-font-specification:Muli Light"
       x="-12.21875"
       y="1604.7244"
       id="text3693"
       sodipodi:linespacing="100%"><tspan
         sodipodi:role="line"
         id="tspan3697"
         x="-12.21875"
         y="1604.7244">x-height</tspan></text>
    <text
       sodipodi:linespacing="100%"
       id="text3699"
       y="1429.7244"
       x="-12.21875"
       style="font-size:16px;font-style:normal;font-variant:normal;font-weight:300;font-stretch:normal;text-align:end;line-height:100%;writing-mode:lr-tb;text-anchor:end;opacity:1;fill:#000000;fill-opacity:1;stroke:none;font-family:Muli;-inkscape-font-specification:Muli Light"
       xml:space="preserve"><tspan
         sodipodi:role="line"
         id="tspan3703"
         x="-12.21875"
         y="1429.7244">Cap-height</tspan></text>
    <text
       xml:space="preserve"
       style="font-size:16px;font-style:normal;font-variant:normal;font-weight:300;font-stretch:normal;text-align:end;line-height:100%;writing-mode:lr-tb;text-anchor:end;opacity:1;fill:#000000;fill-opacity:1;stroke:none;font-family:Muli;-inkscape-font-specification:Muli Light"
       x="-12.21875"
       y="1329.7244"
       id="text3705"
       sodipodi:linespacing="100%"><tspan
         sodipodi:role="line"
         id="tspan3709"
         x="-12.21875"
         y="1329.7244">Ascent</tspan></text>
    <text
       xml:space="preserve"
       style="font-size:16px;font-style:normal;font-variant:normal;font-weight:300;font-stretch:normal;text-align:end;line-height:100%;writing-mode:lr-tb;text-anchor:end;opacity:1;fill:#000000;fill-opacity:1;stroke:none;font-family:Muli;-inkscape-font-specification:Muli Light"
       x="-12.21875"
       y="2104.7244"
       id="text3711"
       sodipodi:linespacing="100%"><tspan
         sodipodi:role="line"
         id="tspan3715"
         x="-12.21875"
         y="2104.7244">Baseline</tspan></text>
    <text
       sodipodi:linespacing="100%"
       id="text3717"
       y="2305"
       x="-13.375"
       style="font-size:16px;font-style:normal;font-variant:normal;font-weight:300;font-stretch:normal;text-align:end;line-height:100%;writing-mode:lr-tb;text-anchor:end;opacity:1;fill:#000000;fill-opacity:1;stroke:none;font-family:Muli;-inkscape-font-specification:Muli Light"
       xml:space="preserve"><tspan
         sodipodi:role="line"
         id="tspan3721"
         x="-13.375"
         y="2305">Descent</tspan></text>
    <rect
       style="fill:#000000;fill-opacity:0.05394191;stroke:none"
       id="rect3723"
       width="575"
       height="1000"
       x="0"
       y="1.1368684e-13"
       transform="translate(0,1304.7244)" />
    <rect
       y="1579.7244"
       x="0"
       height="525.00006"
       width="575"
       id="rect3725"
       style="fill:#000000;fill-opacity:0.05394191;stroke:none" />
    <path
       id="path4149"
       d="m -1075,1580 c -131.1676,0 -237.5,117.5253 -237.5,262.5 0,144.9747 106.3324,262.5 237.5,262.5 131.16763,0 237.5,-117.5253 237.5,-262.5 0,-144.9747 -106.33237,-262.5 -237.5,-262.5 z m 0,50 c 103.55339,0 187.5,95.1395 187.5,212.5 0,117.3605 -83.94661,212.5 -187.5,212.5 -103.5534,0 -187.5,-95.1395 -187.5,-212.5 0,-117.3605 83.9466,-212.5 187.5,-212.5 z"
       style="fill:#3c2828;fill-opacity:0.78431373;stroke:none" />
    <path
       style="fill:#3c2828;fill-opacity:0.78431373;stroke:none"
       d="m 1662.5,180 0,487.5 0,212.5 0,50 237.5,0 c 131.1676,0 237.5,-117.5253 237.5,-262.5 0,-144.9747 -106.3324,-262.5 -237.5,-262.5 -76.2167,0 -144.0425,39.68553 -187.5,101.375 l 0,-326.375 -50,0 z M 1900,455 c 103.5534,0 187.5,95.1395 187.5,212.5 0,117.3605 -83.9466,212.5 -187.5,212.5 l -139.4375,0 -48.0625,0 0,-51.375 0,-148.625 0.3437,0 c -0.2118,-4.13753 -0.3437,-8.30228 -0.3437,-12.5 0,-117.3605 83.9466,-212.5 187.5,-212.5 z"
       id="path4153" />
    <path
       style="fill:#3c2828;fill-opacity:0.78431373;stroke:none"
       d="M 287.5 275 C 156.3324 275 50 392.5253 50 537.5 L 50 1000 L 100 1000 L 100 698.625 C 143.45754 760.3145 211.28333 800 287.5 800 C 418.66763 800 525 682.4747 525 537.5 C 525 392.5253 418.66763 275 287.5 275 z M 287.5 325 C 391.05339 325 475 420.1395 475 537.5 C 475 654.8605 391.05339 750 287.5 750 C 183.9466 750 100 654.8605 100 537.5 C 100 420.1395 183.9466 325 287.5 325 z "
       transform="translate(0,1305)"
       id="path3236" />
    <path
       id="path3241"
       d="m 151.2718,2401.2468 0,8.0658 c 0,2.1756 1.5958,3.9391 3.5645,3.9391 1.968,0 3.5636,-1.7635 3.5636,-3.9391 0,-2.1753 -1.5956,-3.9393 -3.5636,-3.9393 -1.144,0 -2.162,0.5958 -2.8139,1.5215 l 0,-5.648 -0.7506,0 z m 3.5645,4.877 c 1.5536,0 2.8135,1.4275 2.8135,3.1888 0,1.7611 -1.2599,3.189 -2.8135,3.189 -1.5542,0 -2.8139,-1.4279 -2.8139,-3.189 0,-1.7613 1.2597,-3.1888 2.8139,-3.1888 z"
       style="fill:#000000;fill-opacity:1;stroke:none" />
    <path
       style="fill:#3c2828;fill-opacity:0.78431373;stroke:none"
       d="m 1850,3331.375 0,-537.5 c 0,-144.9747 106.3324,-262.5 237.5,-262.5 131.1676,0 237.5,117.5253 237.5,262.5 0,144.9747 -106.3324,262.5 -237.5,262.5 -76.2167,0 -144.0425,-39.6855 -187.5,-101.375 l 0,376.375 -50,0 z m 237.5,-325 c 103.5534,0 187.5,-95.1395 187.5,-212.5 0,-117.3605 -83.9466,-212.5 -187.5,-212.5 -103.5534,0 -187.5,95.1395 -187.5,212.5 0,117.3605 83.9466,212.5 187.5,212.5 z"
       id="path3243" />
    <path
       id="path3245"
       d="m 175.7535,2401.2468 0,8.0658 c 0,2.1756 -1.5955,3.9391 -3.5641,3.9391 -1.9685,0 -3.564,-1.7635 -3.564,-3.9391 0,-2.1753 1.5955,-3.9393 3.564,-3.9393 1.1436,0 2.1616,0.5958 2.8137,1.5215 l 0,-5.648 0.7504,0 z m -3.5641,4.877 c -1.5539,0 -2.8138,1.4275 -2.8138,3.1888 0,1.7611 1.2599,3.189 2.8138,3.189 1.5539,0 2.8137,-1.4279 2.8137,-3.189 0,-1.7613 -1.2598,-3.1888 -2.8137,-3.1888 z"
       style="fill:#000000;fill-opacity:1;stroke:none" />
    <path
       style="fill:#000000;fill-opacity:1;stroke:none"
       d="m 163.4267,2405.1683 c -1.9889,0 -3.6009,1.7819 -3.6009,3.9803 0,2.1977 1.612,3.9793 3.6009,3.9793 1.4004,0 2.6146,-0.8841 3.2104,-2.175 l 0.4014,2.3054 0.7469,-0.1297 -0.7941,-4.5425 c -0.2474,-1.9318 -1.7491,-3.417 -3.5646,-3.417 z m 0,0.7582 c 1.5697,0 2.8424,1.4423 2.8424,3.2221 0,1.7789 -1.2727,3.2215 -2.8424,3.2215 -1.5704,0 -2.8432,-1.4426 -2.8432,-3.2215 0,-1.7798 1.2728,-3.2221 2.8432,-3.2221 z"
       id="path4144"
       sodipodi:nodetypes="cssccccccsssc" />
    <text
       xml:space="preserve"
       style="font-size:16px;font-style:normal;font-variant:normal;font-weight:bold;font-stretch:normal;text-align:start;line-height:100%;writing-mode:lr-tb;text-anchor:start;fill:#000000;fill-opacity:1;stroke:none;font-family:Inconsolata;-inkscape-font-specification:Inconsolata Bold"
       x="189"
       y="2413"
       id="text4516"
       sodipodi:linespacing="100%"><tspan
         sodipodi:role="line"
         id="tspan4518"
         x="189"
         y="2413">bad</tspan></text>
    <path
       id="path3859"
       d="m 145.83333,2405.375 c -2.11709,0 -3.83333,1.8969 -3.83333,4.2368 l 0,7.4649 0.80702,0 0,-4.8642 c 0.70142,0.9956 1.79615,1.6362 3.02631,1.6362 2.11709,0 3.83333,-1.8969 3.83333,-4.2369 0,-2.3399 -1.71624,-4.2368 -3.83333,-4.2368 z m 0,0.807 c 1.67139,0 3.02631,1.5356 3.02631,3.4298 0,1.8943 -1.35492,3.4299 -3.02631,3.4299 -1.67139,0 -3.02631,-1.5356 -3.02631,-3.4299 0,-1.8942 1.35492,-3.4298 3.02631,-3.4298 z"
       style="fill:#000000;fill-opacity:1;stroke:none" />
  </g>
</svg>
