<?xml version="1.0" encoding="UTF-8" standalone="no"?>
<!-- Created with Inkscape (http://www.inkscape.org/) -->

<svg
   xmlns:dc="http://purl.org/dc/elements/1.1/"
   xmlns:cc="http://creativecommons.org/ns#"
   xmlns:rdf="http://www.w3.org/1999/02/22-rdf-syntax-ns#"
   xmlns:svg="http://www.w3.org/2000/svg"
   xmlns="http://www.w3.org/2000/svg"
   xmlns:sodipodi="http://sodipodi.sourceforge.net/DTD/sodipodi-0.dtd"
   xmlns:inkscape="http://www.inkscape.org/namespaces/inkscape"
   width="575"
   height="800"
   id="svg2890"
   version="1.1"
   inkscape:version="0.47 r22583"
   sodipodi:docname="s.svg"
   transform="matrix(1.000000,0.000000,0.000000,1.000000,0.000000,0.000000)">
  <sodipodi:namedview
     id="base"
     pagecolor="#ffffff"
     bordercolor="#aaaaaa"
     borderopacity="1"
     inkscape:pageopacity="0.0"
     inkscape:pageshadow="2"
     inkscape:zoom="1"
     inkscape:cx="36.661843"
     inkscape:cy="-223.42912"
     inkscape:document-units="px"
     inkscape:current-layer="layer1"
     showgrid="false"
     inkscape:window-width="1280"
     inkscape:window-height="752"
     inkscape:window-x="0"
     inkscape:window-y="0"
     inkscape:window-maximized="1"
     objecttolerance="4"
     guidetolerance="5"
     showguides="true"
     inkscape:guide-bbox="true"
     inkscape:showpageshadow="false"
     showborder="true">
    <inkscape:grid
       type="xygrid"
       id="grid2816"
       empspacing="25"
       visible="true"
       enabled="true"
       snapvisiblegridlinesonly="true"
       dotted="false"
       empcolor="#3a3ac5"
       empopacity="0.09803922" />
    <sodipodi:guide
       orientation="0,1"
       position="-350,-200"
       id="guide2818" />
    <sodipodi:guide
       orientation="1,0"
       position="25,-300"
       id="guide2820" />
    <sodipodi:guide
       orientation="1,0"
       position="550,-300"
       id="guide2822" />
    <sodipodi:guide
       orientation="0,1"
       position="-350,0"
       id="guide2824" />
    <sodipodi:guide
       orientation="0,1"
       position="-350,525"
       id="guide2847" />
    <sodipodi:guide
       orientation="0,1"
       position="-350,700"
       id="guide2849" />
    <sodipodi:guide
       orientation="0,1"
       position="-350,800"
       id="guide3649" />
    <sodipodi:guide
       orientation="1,0"
       position="0,-300"
       id="guide3653" />
    <sodipodi:guide
       orientation="1,0"
       position="575,-300"
       id="guide3655" />
    <sodipodi:guide
       orientation="0,1"
       position="-8850,250"
       id="guide3659" />
    <sodipodi:guide
       orientation="0,1"
       position="-550,-900"
       id="guide3669" />
    <sodipodi:guide
       orientation="0,1"
       position="-12225,350"
       id="guide3681" />
  </sodipodi:namedview>
  <defs
     id="defs2892">
    <inkscape:perspective
       sodipodi:type="inkscape:persp3d"
       inkscape:vp_x="0 : 526.18109 : 1"
       inkscape:vp_y="0 : 1000 : 0"
       inkscape:vp_z="744.09448 : 526.18109 : 1"
       inkscape:persp3d-origin="372.04724 : 350.78739 : 1"
       id="perspective2898" />
    <inkscape:perspective
       sodipodi:type="inkscape:persp3d"
       inkscape:vp_x="0 : 526.18109 : 1"
       inkscape:vp_y="0 : 1000 : 0"
       inkscape:vp_z="744.09448 : 526.18109 : 1"
       inkscape:persp3d-origin="372.04724 : 350.78739 : 1"
       id="perspective2898-6" />
    <inkscape:perspective
       sodipodi:type="inkscape:persp3d"
       inkscape:vp_x="0 : 0.5 : 1"
       inkscape:vp_y="0 : 1000 : 0"
       inkscape:vp_z="1 : 0.5 : 1"
       inkscape:persp3d-origin="0.5 : 0.33333333 : 1"
       id="perspective3469" />
    <inkscape:perspective
       sodipodi:type="inkscape:persp3d"
       inkscape:vp_x="0 : 526.18109 : 1"
       inkscape:vp_y="0 : 1000 : 0"
       inkscape:vp_z="744.09448 : 526.18109 : 1"
       inkscape:persp3d-origin="372.04724 : 350.78739 : 1"
       id="perspective2898-7" />
    <inkscape:perspective
       id="perspective2898-3"
       inkscape:persp3d-origin="372.04724 : 350.78739 : 1"
       inkscape:vp_z="744.09448 : 526.18109 : 1"
       inkscape:vp_y="0 : 1000 : 0"
       inkscape:vp_x="0 : 526.18109 : 1"
       sodipodi:type="inkscape:persp3d" />
    <inkscape:perspective
       sodipodi:type="inkscape:persp3d"
       inkscape:vp_x="0 : 526.18109 : 1"
       inkscape:vp_y="0 : 1000 : 0"
       inkscape:vp_z="744.09448 : 526.18109 : 1"
       inkscape:persp3d-origin="372.04724 : 350.78739 : 1"
       id="perspective2898-3-9" />
    <inkscape:perspective
       id="perspective2898-7-3"
       inkscape:persp3d-origin="372.04724 : 350.78739 : 1"
       inkscape:vp_z="744.09448 : 526.18109 : 1"
       inkscape:vp_y="0 : 1000 : 0"
       inkscape:vp_x="0 : 526.18109 : 1"
       sodipodi:type="inkscape:persp3d" />
    <inkscape:perspective
       id="perspective3469-2"
       inkscape:persp3d-origin="0.5 : 0.33333333 : 1"
       inkscape:vp_z="1 : 0.5 : 1"
       inkscape:vp_y="0 : 1000 : 0"
       inkscape:vp_x="0 : 0.5 : 1"
       sodipodi:type="inkscape:persp3d" />
    <inkscape:perspective
       id="perspective2898-6-0"
       inkscape:persp3d-origin="372.04724 : 350.78739 : 1"
       inkscape:vp_z="744.09448 : 526.18109 : 1"
       inkscape:vp_y="0 : 1000 : 0"
       inkscape:vp_x="0 : 526.18109 : 1"
       sodipodi:type="inkscape:persp3d" />
    <inkscape:perspective
       id="perspective2898-79"
       inkscape:persp3d-origin="372.04724 : 350.78739 : 1"
       inkscape:vp_z="744.09448 : 526.18109 : 1"
       inkscape:vp_y="0 : 1000 : 0"
       inkscape:vp_x="0 : 526.18109 : 1"
       sodipodi:type="inkscape:persp3d" />
  </defs>
  <metadata
     id="metadata2895">
    <rdf:RDF>
      <cc:Work
         rdf:about="">
        <dc:format>image/svg+xml</dc:format>
        <dc:type
           rdf:resource="http://purl.org/dc/dcmitype/StillImage" />
        <dc:title></dc:title>
      </cc:Work>
    </rdf:RDF>
  </metadata>
  <g
     inkscape:label="Layer 1"
     inkscape:groupmode="layer"
     id="layer1"
     transform="matrix(1.000000,0.000000,0.000000,1.000000,0.000000,-1305.000000)">
    <text
       xml:space="preserve"
       style="font-size:1110.18688965px;font-style:normal;font-variant:normal;font-weight:bold;font-stretch:normal;text-align:start;line-height:100%;writing-mode:lr-tb;text-anchor:start;opacity:0.59670781;fill:#000000;fill-opacity:1;stroke:none;font-family:Inconsolata;-inkscape-font-specification:Inconsolata Bold"
       x="650"
       y="455"
       id="text2851"
       sodipodi:linespacing="100%"><tspan
         sodipodi:role="line"
         id="tspan2925"
         x="650"
         y="455">srR</tspan></text>
    <text
       xml:space="preserve"
       style="font-size:890.6105957px;font-style:normal;font-variant:normal;font-weight:normal;font-stretch:normal;text-align:start;line-height:100%;writing-mode:lr-tb;text-anchor:start;opacity:0.59670781;fill:#000000;fill-opacity:1;stroke:none;font-family:Aaargh;-inkscape-font-specification:Aaargh"
       x="-2600"
       y="205"
       id="text3633"
       sodipodi:linespacing="100%"><tspan
         sodipodi:role="line"
         id="tspan2927"
         x="-2600"
         y="205">Rrs</tspan></text>
    <text
       xml:space="preserve"
       style="font-size:16px;font-style:normal;font-variant:normal;font-weight:300;font-stretch:normal;text-align:end;line-height:100%;writing-mode:lr-tb;text-anchor:end;opacity:1;fill:#000000;fill-opacity:1;stroke:none;font-family:Muli;-inkscape-font-specification:Muli Light"
       x="-12.21875"
       y="1854.7244"
       id="text3675"
       sodipodi:linespacing="100%"><tspan
         sodipodi:role="line"
         id="tspan3679"
         x="-12.21875"
         y="1854.7244">Lowercase-dash-support</tspan></text>
    <text
       sodipodi:linespacing="100%"
       id="text3683"
       y="1754.7244"
       x="-12.21875"
       style="font-size:16px;font-style:normal;font-variant:normal;font-weight:300;font-stretch:normal;text-align:end;line-height:100%;writing-mode:lr-tb;text-anchor:end;opacity:1;fill:#000000;fill-opacity:1;stroke:none;font-family:Muli;-inkscape-font-specification:Muli Light"
       xml:space="preserve"><tspan
         sodipodi:role="line"
         id="tspan3687"
         x="-12.21875"
         y="1754.7244">Capital-dash-support</tspan></text>
    <text
       xml:space="preserve"
       style="font-size:16px;font-style:normal;font-variant:normal;font-weight:300;font-stretch:normal;text-align:end;line-height:100%;writing-mode:lr-tb;text-anchor:end;opacity:1;fill:#000000;fill-opacity:1;stroke:none;font-family:Muli;-inkscape-font-specification:Muli Light"
       x="-12.21875"
       y="1604.7244"
       id="text3693"
       sodipodi:linespacing="100%"><tspan
         sodipodi:role="line"
         id="tspan3697"
         x="-12.21875"
         y="1604.7244">x-height</tspan></text>
    <text
       sodipodi:linespacing="100%"
       id="text3699"
       y="1429.7244"
       x="-12.21875"
       style="font-size:16px;font-style:normal;font-variant:normal;font-weight:300;font-stretch:normal;text-align:end;line-height:100%;writing-mode:lr-tb;text-anchor:end;opacity:1;fill:#000000;fill-opacity:1;stroke:none;font-family:Muli;-inkscape-font-specification:Muli Light"
       xml:space="preserve"><tspan
         sodipodi:role="line"
         id="tspan3703"
         x="-12.21875"
         y="1429.7244">Cap-height</tspan></text>
    <text
       xml:space="preserve"
       style="font-size:16px;font-style:normal;font-variant:normal;font-weight:300;font-stretch:normal;text-align:end;line-height:100%;writing-mode:lr-tb;text-anchor:end;opacity:1;fill:#000000;fill-opacity:1;stroke:none;font-family:Muli;-inkscape-font-specification:Muli Light"
       x="-12.21875"
       y="1329.7244"
       id="text3705"
       sodipodi:linespacing="100%"><tspan
         sodipodi:role="line"
         id="tspan3709"
         x="-12.21875"
         y="1329.7244">Ascent</tspan></text>
    <text
       xml:space="preserve"
       style="font-size:16px;font-style:normal;font-variant:normal;font-weight:300;font-stretch:normal;text-align:end;line-height:100%;writing-mode:lr-tb;text-anchor:end;opacity:1;fill:#000000;fill-opacity:1;stroke:none;font-family:Muli;-inkscape-font-specification:Muli Light"
       x="-12.21875"
       y="2104.7244"
       id="text3711"
       sodipodi:linespacing="100%"><tspan
         sodipodi:role="line"
         id="tspan3715"
         x="-12.21875"
         y="2104.7244">Baseline</tspan></text>
    <text
       sodipodi:linespacing="100%"
       id="text3717"
       y="2305"
       x="-13.375"
       style="font-size:16px;font-style:normal;font-variant:normal;font-weight:300;font-stretch:normal;text-align:end;line-height:100%;writing-mode:lr-tb;text-anchor:end;opacity:1;fill:#000000;fill-opacity:1;stroke:none;font-family:Muli;-inkscape-font-specification:Muli Light"
       xml:space="preserve"><tspan
         sodipodi:role="line"
         id="tspan3721"
         x="-13.375"
         y="2305">Descent</tspan></text>
    <rect
       style="fill:#000000;fill-opacity:0.05394191;stroke:none"
       id="rect3723"
       width="575"
       height="1000"
       x="0"
       y="1.1368684e-13"
       transform="translate(0,1304.7244)" />
    <rect
       y="1579.7244"
       x="0"
       height="525.00006"
       width="575"
       id="rect3725"
       style="fill:#000000;fill-opacity:0.05394191;stroke:none" />
    <path
       style="fill:#3c2828;fill-opacity:0.78431373;stroke:none"
       d="m -2950,355 c -131.1676,0 -237.5,117.5253 -237.5,262.5 0,144.9747 106.3324,262.5 237.5,262.5 131.1676,0 237.5,-117.5253 237.5,-262.5 0,-144.9747 -106.3324,-262.5 -237.5,-262.5 z m 0,50 c 103.5534,0 187.5,95.1395 187.5,212.5 0,117.3605 -83.9466,212.5 -187.5,212.5 -103.5534,0 -187.5,-95.1395 -187.5,-212.5 0,-117.3605 83.9466,-212.5 187.5,-212.5 z"
       id="path4153" />
    <path
       id="path3241"
       d="m 184,2486.6842 0,8.0658 c 0,2.1756 1.5958,3.9391 3.5645,3.9391 1.968,0 3.5636,-1.7635 3.5636,-3.9391 0,-2.1753 -1.5956,-3.9393 -3.5636,-3.9393 -1.144,0 -2.162,0.5958 -2.8139,1.5215 l 0,-5.648 -0.7506,0 z m 3.5645,4.877 c 1.5536,0 2.8135,1.4275 2.8135,3.1888 0,1.7611 -1.2599,3.189 -2.8135,3.189 -1.5542,0 -2.8139,-1.4279 -2.8139,-3.189 0,-1.7613 1.2597,-3.1888 2.8139,-3.1888 z"
       style="fill:#000000;fill-opacity:1;stroke:none" />
    <path
       id="path3245"
       d="m 208.1281,2486.6842 0,8.0658 c 0,2.1756 -1.5955,3.9391 -3.5641,3.9391 -1.9685,0 -3.564,-1.7635 -3.564,-3.9391 0,-2.1753 1.5955,-3.9393 3.564,-3.9393 1.1436,0 2.1616,0.5958 2.8137,1.5215 l 0,-5.648 0.7504,0 z m -3.5641,4.877 c -1.5539,0 -2.8138,1.4275 -2.8138,3.1888 0,1.7611 1.2599,3.189 2.8138,3.189 1.5539,0 2.8137,-1.4279 2.8137,-3.189 0,-1.7613 -1.2598,-3.1888 -2.8137,-3.1888 z"
       style="fill:#000000;fill-opacity:1;stroke:none" />
    <path
       style="fill:#000000;fill-opacity:1;stroke:none"
       d="m 195.61918,2490.5646 c -1.999,0 -3.61918,1.791 -3.61918,4.0005 0,2.2089 1.62018,3.9995 3.61918,3.9995 1.4075,0 2.62787,-0.8885 3.22669,-2.186 l 0.40344,2.3171 0.75069,-0.1304 -0.79813,-4.5655 c -0.24866,-1.9416 -1.75798,-3.4344 -3.58269,-3.4344 z m 0,0.7621 c 1.57766,0 2.85682,1.4496 2.85682,3.2384 0,1.788 -1.27916,3.2379 -2.85682,3.2379 -1.57837,0 -2.85763,-1.4499 -2.85763,-3.2379 0,-1.7888 1.27926,-3.2384 2.85763,-3.2384 z"
       id="path4144"
       sodipodi:nodetypes="cssccccccsssc" />
    <text
       xml:space="preserve"
       style="font-size:16px;font-style:normal;font-variant:normal;font-weight:bold;font-stretch:normal;text-align:start;line-height:100%;writing-mode:lr;text-anchor:start;fill:#000000;fill-opacity:1;stroke:none;font-family:Inconsolata;-inkscape-font-specification:Inconsolata Bold"
       x="221.008"
       y="2498.824"
       id="text4516"
       sodipodi:linespacing="100%"><tspan
         sodipodi:role="line"
         id="tspan4459">enucbad</tspan></text>
    <path
       id="path4853"
       d="m 167,2490.6894 0,3.9999 c 0,2.2092 1.62028,4.0001 3.61902,4.0001 1.99872,0 3.619,-1.7909 3.619,-4.0001 l 0,-3.9999 -0.76189,0 0,1.5446 0,2.4553 c 0,1.7885 -1.27919,3.238 -2.85711,3.238 -1.57795,0 -2.85714,-1.4495 -2.85714,-3.238 l 0,-2.4553 0,-1.5446 -0.76188,0 z"
       style="fill:#000000;fill-opacity:1;stroke:none" />
    <path
       style="fill:#000000;fill-opacity:1;stroke:none"
       d="m 158,2499 0,-3.9999 c 0,-2.2092 1.62028,-4.0001 3.61902,-4.0001 1.99872,0 3.619,1.7909 3.619,4.0001 l 0,3.9999 -0.76189,0 0,-1.5446 0,-2.4553 c 0,-1.7885 -1.27919,-3.238 -2.85711,-3.238 -1.57795,0 -2.85714,1.4495 -2.85714,3.238 l 0,2.4553 0,1.5446 -0.76188,0 z"
       id="path2868" />
    <path
       sodipodi:nodetypes="cssccsssccc"
       id="path2919"
       d="m 179.61906,2491 c -1.99875,0 -3.61906,1.7909 -3.61906,4 0,2.2091 1.62031,4 3.61906,4 1.05817,0 2.01017,-0.5022 2.67192,-1.3024 l -0.53858,-0.5438 c -0.52327,0.6653 -1.2851,1.0843 -2.13334,1.0843 -1.57796,0 -2.85715,-1.4497 -2.85715,-3.2381 0,-1.7884 1.27919,-3.2381 2.85715,-3.2381 0.84621,0 1.60636,0.4171 2.12954,1.0795 l 0.53761,-0.5452 C 181.62467,2491.4994 180.67458,2491 179.61906,2491 z"
       style="fill:#000000;fill-opacity:1;stroke:none" />
    <path
       id="path4457"
       d="m 152.61904,2491 c -1.99874,0 -3.61904,1.7909 -3.61904,4 0,2.2091 1.6203,4 3.61904,4 1.02831,0 1.95639,-0.4742 2.61524,-1.2353 l -0.52618,-0.5561 c -0.52143,0.6334 -1.26434,1.0295 -2.08906,1.0295 -1.52151,0 -2.76488,-1.348 -2.8519,-3.0477 l 3.03191,0 2.6719,0 0.76286,0 c 0.003,-0.063 0.004,-0.1265 0.004,-0.1904 0,-2.2091 -1.6203,-4 -3.61905,-4 z m 3.61477,4.1904 c -0.002,0.03 -0.003,0.06 -0.005,0.09 0.002,-0.03 0.003,-0.059 0.005,-0.09 z m -0.005,0.09 c -0.006,0.09 -0.0141,0.1794 -0.0252,0.2682 0.0109,-0.088 0.0196,-0.1779 0.0252,-0.2682 z m -0.0252,0.2682 c -0.003,0.029 -0.008,0.059 -0.0119,0.088 0.004,-0.029 0.009,-0.059 0.0119,-0.088 z m -0.0119,0.088 c -0.0859,0.5889 -0.29028,1.1498 -0.59761,1.6404 0.30174,-0.4808 0.51044,-1.0382 0.59761,-1.6404 z m -0.59761,1.6404 c -0.0297,0.047 -0.0603,0.094 -0.0919,0.14 0.0316,-0.046 0.0622,-0.093 0.0919,-0.14 z m -2.97524,-5.5152 c 1.40592,0 2.57474,1.1508 2.81286,2.6667 l -5.62571,0 c 0.23812,-1.5159 1.40693,-2.6667 2.81285,-2.6667 z m 2.87333,5.67 c -0.0142,0.021 -0.0287,0.041 -0.0434,0.061 0.0146,-0.021 0.029,-0.041 0.0434,-0.061 z m -0.0434,0.061 c -0.0169,0.023 -0.0341,0.046 -0.0515,0.07 0.0175,-0.023 0.0345,-0.047 0.0515,-0.07 z m -0.11096,0.1466 c -0.0158,0.02 -0.0319,0.04 -0.0481,0.059 0.0161,-0.02 0.0323,-0.039 0.0481,-0.059 z"
       style="fill:#000000;fill-opacity:1;stroke:none" />
    <text
       xml:space="preserve"
       style="font-size:16px;font-style:normal;font-variant:normal;font-weight:bold;font-stretch:normal;text-align:start;line-height:100%;writing-mode:lr-tb;text-anchor:start;fill:#000000;fill-opacity:1;stroke:none;font-family:Inconsolata;-inkscape-font-specification:Inconsolata Bold"
       x="205"
       y="1234"
       id="text4461"
       sodipodi:linespacing="100%"
       transform="translate(0,1305)"><tspan
         sodipodi:role="line"
         id="tspan4463"
         x="205"
         y="1234">* smaller gap in e</tspan><tspan
         sodipodi:role="line"
         x="205"
         y="1250"
         id="tspan4465">* narrower n/u</tspan></text>
    <path
       sodipodi:nodetypes="cszccsccccccc"
       id="path2874"
       d="m 152.61904,2464 c -1.99874,0 -3.61904,1.7909 -3.61904,4 0,2.2091 1.48825,4 3.61904,4 2.13079,0 2.57923,-0.3818 3.23809,-1.1428 l -0.52619,-0.5562 c -0.52142,0.6334 -1.37857,0.9371 -2.7119,0.9371 -1.52152,0 -2.76487,-1.348 -2.8519,-3.0476 l 6.46666,0 c 0.004,-2.24 -1.58048,-4.1905 -3.61476,-4.1905 z m 0,0.7619 c 1.40592,0 2.57473,1.1509 2.81285,2.6667 l -5.6257,0 c 0.23812,-1.5158 1.40693,-2.6667 2.81285,-2.6667 z"
       style="fill:#000000;fill-opacity:1;stroke:none" />
    <path
       style="fill:#000000;fill-opacity:1;stroke:none"
       d="m 184,2459.9951 0,8.0658 c 0,2.1756 1.5958,3.9391 3.5645,3.9391 1.968,0 3.5636,-1.7635 3.5636,-3.9391 0,-2.1753 -1.5956,-3.9393 -3.5636,-3.9393 -1.144,0 -2.162,0.5958 -2.8139,1.5215 l 0,-5.648 -0.7506,0 z m 3.5645,4.877 c 1.5536,0 2.8135,1.4275 2.8135,3.1888 0,1.7611 -1.2599,3.189 -2.8135,3.189 -1.5542,0 -2.8139,-1.4279 -2.8139,-3.189 0,-1.7613 1.2597,-3.1888 2.8139,-3.1888 z"
       id="path3648" />
    <path
       style="fill:#000000;fill-opacity:1;stroke:none"
       d="m 208.1281,2459.9951 0,8.0658 c 0,2.1756 -1.5955,3.9391 -3.5641,3.9391 -1.9685,0 -3.564,-1.7635 -3.564,-3.9391 0,-2.1753 1.5955,-3.9393 3.564,-3.9393 1.1436,0 2.1616,0.5958 2.8137,1.5215 l 0,-5.648 0.7504,0 z m -3.5641,4.877 c -1.5539,0 -2.8138,1.4275 -2.8138,3.1888 0,1.7611 1.2599,3.189 2.8138,3.189 1.5539,0 2.8137,-1.4279 2.8137,-3.189 0,-1.7613 -1.2598,-3.1888 -2.8137,-3.1888 z"
       id="path3650" />
    <path
       sodipodi:nodetypes="cssccccccsssc"
       id="path3652"
       d="m 195.61918,2464.0483 c -1.999,0 -3.61918,1.791 -3.61918,4.0005 0,2.2089 1.62018,3.9995 3.61918,3.9995 1.4075,0 2.62787,-0.8885 3.22669,-2.186 l 0.40344,2.3171 0.75069,-0.1304 -0.79813,-4.5655 c -0.24866,-1.9416 -1.75798,-3.4344 -3.58269,-3.4344 z m 0,0.7621 c 1.57766,0 2.85682,1.4496 2.85682,3.2384 0,1.788 -1.27916,3.2379 -2.85682,3.2379 -1.57837,0 -2.85763,-1.4499 -2.85763,-3.2379 0,-1.7888 1.27926,-3.2384 2.85763,-3.2384 z"
       style="fill:#000000;fill-opacity:1;stroke:none" />
    <text
       sodipodi:linespacing="100%"
       id="text3654"
       y="2471.824"
       x="221.008"
       style="font-size:16px;font-style:normal;font-variant:normal;font-weight:bold;font-stretch:normal;text-align:start;line-height:100%;writing-mode:lr-tb;text-anchor:start;fill:#000000;fill-opacity:1;stroke:none;font-family:Inconsolata;-inkscape-font-specification:Inconsolata Bold"
       xml:space="preserve"><tspan
         id="tspan3656"
         sodipodi:role="line"
         x="221.008"
         y="2471.824">enucbad</tspan></text>
    <path
       style="fill:#000000;fill-opacity:1;stroke:none"
       d="m 167,2464 0,3.9999 c 0,2.2092 1.62028,4.0001 3.61902,4.0001 1.99872,0 3.619,-1.7909 3.619,-4.0001 l 0,-3.9999 -0.76189,0 0,1.5446 0,2.4553 c 0,1.7885 -1.27919,3.238 -2.85711,3.238 -1.57795,0 -2.85714,-1.4495 -2.85714,-3.238 l 0,-2.4553 0,-1.5446 -0.76188,0 z"
       id="path3658" />
    <path
       id="path3660"
       d="m 158,2472 0,-3.9999 c 0,-2.2092 1.62028,-4.0001 3.61902,-4.0001 1.99872,0 3.619,1.7909 3.619,4.0001 l 0,3.9999 -0.76189,0 0,-1.5446 0,-2.4553 c 0,-1.7885 -1.27919,-3.238 -2.85711,-3.238 -1.57795,0 -2.85714,1.4495 -2.85714,3.238 l 0,2.4553 0,1.5446 -0.76188,0 z"
       style="fill:#000000;fill-opacity:1;stroke:none" />
    <path
       style="fill:#000000;fill-opacity:1;stroke:none"
       d="m 179.61906,2464 c -1.99875,0 -3.61906,1.7909 -3.61906,4 0,2.2091 1.62031,4 3.61906,4 1.05817,0 2.01017,-0.5022 2.67192,-1.3024 l -0.53858,-0.5438 c -0.52327,0.6653 -1.2851,1.0843 -2.13334,1.0843 -1.57796,0 -2.85715,-1.4497 -2.85715,-3.2381 0,-1.7884 1.27919,-3.2381 2.85715,-3.2381 0.84621,0 1.60636,0.4171 2.12954,1.0795 l 0.53761,-0.5452 C 181.62467,2464.4994 180.67458,2464 179.61906,2464 z"
       id="path3662"
       sodipodi:nodetypes="cssccsssccc" />
    <path
       style="fill:#000000;fill-opacity:1;stroke:none"
       d="m 160.2381,2437 c -1.78835,0 -3.2381,1.7909 -3.2381,4 l 0,4 0.76191,0 0,-4 c 0,-1.7883 1.10862,-3.2381 2.47619,-3.2381 1.36756,0 2.47619,1.4498 2.47619,3.2381 l 0,4 0.7619,0 0,-4 c 0,-2.2091 -1.44974,-4 -3.23809,-4 z"
       id="path3880" />
    <path
       id="path4732"
       d="m 168.2381,2445 c -1.78836,0 -3.2381,-1.7909 -3.2381,-4 l 0,-4 0.7619,0 0,4 c 0,1.7883 1.10863,3.2381 2.4762,3.2381 1.36756,0 2.47619,-1.4498 2.47619,-3.2381 l 0,-4 0.7619,0 0,4 c 0,2.2091 -1.44974,4 -3.23809,4 z"
       style="fill:#000000;fill-opacity:1;stroke:none" />
    <path
       style="fill:#000000;fill-opacity:1;stroke:none"
       d="m 152.61904,2437 c -1.99874,0 -3.61904,1.7909 -3.61904,4 0,2.2091 1.48825,4 3.61904,4 2.13079,0 2.57923,-0.3818 3.23809,-1.1428 l -0.52619,-0.5562 c -0.52142,0.6334 -1.37857,0.9371 -2.7119,0.9371 -1.52152,0 -2.76487,-1.348 -2.8519,-3.0476 l 6.46666,0 c 0.004,-2.24 -1.58048,-4.1905 -3.61476,-4.1905 z m 0,0.7619 c 1.40592,0 2.57473,1.1509 2.81285,2.6667 l -5.6257,0 c 0.23812,-1.5158 1.40693,-2.6667 2.81285,-2.6667 z"
       id="path5244"
       sodipodi:nodetypes="cszccsccccccc" />
    <path
       id="path5246"
       d="m 181,2432.9951 0,8.0658 c 0,2.1756 1.5958,3.9391 3.5645,3.9391 1.968,0 3.5636,-1.7635 3.5636,-3.9391 0,-2.1753 -1.5956,-3.9393 -3.5636,-3.9393 -1.144,0 -2.162,0.5958 -2.8139,1.5215 l 0,-5.648 -0.7506,0 z m 3.5645,4.877 c 1.5536,0 2.8135,1.4275 2.8135,3.1888 0,1.7611 -1.2599,3.189 -2.8135,3.189 -1.5542,0 -2.8139,-1.4279 -2.8139,-3.189 0,-1.7613 1.2597,-3.1888 2.8139,-3.1888 z"
       style="fill:#000000;fill-opacity:1;stroke:none" />
    <path
       id="path5248"
       d="m 205.1281,2432.9951 0,8.0658 c 0,2.1756 -1.5955,3.9391 -3.5641,3.9391 -1.9685,0 -3.564,-1.7635 -3.564,-3.9391 0,-2.1753 1.5955,-3.9393 3.564,-3.9393 1.1436,0 2.1616,0.5958 2.8137,1.5215 l 0,-5.648 0.7504,0 z m -3.5641,4.877 c -1.5539,0 -2.8138,1.4275 -2.8138,3.1888 0,1.7611 1.2599,3.189 2.8138,3.189 1.5539,0 2.8137,-1.4279 2.8137,-3.189 0,-1.7613 -1.2598,-3.1888 -2.8137,-3.1888 z"
       style="fill:#000000;fill-opacity:1;stroke:none" />
    <path
       style="fill:#000000;fill-opacity:1;stroke:none"
       d="m 192.61918,2437.2277 c -1.999,0 -3.61918,1.791 -3.61918,4.0005 0,2.2089 1.62018,3.9995 3.61918,3.9995 1.4075,0 2.62787,-0.8885 3.22669,-2.186 l 0.40344,2.3171 0.75069,-0.1304 -0.79813,-4.5655 c -0.24866,-1.9416 -1.75798,-3.4344 -3.58269,-3.4344 z m 0,0.7621 c 1.57766,0 2.85682,1.4496 2.85682,3.2384 0,1.788 -1.27916,3.2379 -2.85682,3.2379 -1.57837,0 -2.85763,-1.4499 -2.85763,-3.2379 0,-1.7888 1.27926,-3.2384 2.85763,-3.2384 z"
       id="path5250"
       sodipodi:nodetypes="cssccccccsssc" />
    <text
       xml:space="preserve"
       style="font-size:16px;font-style:normal;font-variant:normal;font-weight:bold;font-stretch:normal;text-align:start;line-height:100%;writing-mode:lr;text-anchor:start;fill:#000000;fill-opacity:1;stroke:none;font-family:Inconsolata;-inkscape-font-specification:Inconsolata Bold"
       x="221.008"
       y="2443.824"
       id="text5252"
       sodipodi:linespacing="100%"><tspan
         sodipodi:role="line"
         id="tspan10548">refenucbad</tspan></text>
    <path
       sodipodi:nodetypes="cssccsssccc"
       id="path5260"
       d="m 176.61906,2437 c -1.99875,0 -3.61906,1.7909 -3.61906,4 0,2.2091 1.62031,4 3.61906,4 1.05817,0 2.01017,-0.5022 2.67192,-1.3024 l -0.53858,-0.5438 c -0.52327,0.6653 -1.2851,1.0843 -2.13334,1.0843 -1.57796,0 -2.85715,-1.4497 -2.85715,-3.2381 0,-1.7884 1.27919,-3.2381 2.85715,-3.2381 0.84621,0 1.60636,0.4171 2.12954,1.0795 l 0.53761,-0.5452 C 178.62467,2437.4994 177.67458,2437 176.61906,2437 z"
       style="fill:#000000;fill-opacity:1;stroke:none" />
    <path
       id="path5389"
       d="m -262.5,780 c 0,40.13671 -9.84295,77.66549 -26.90625,109.6875 l 43.3125,25 C -224.75679,875.31162 -212.5,829.23665 -212.5,780 l -50,0 z"
       style="fill:#3c2828;fill-opacity:0.78431373;stroke:none" />
    <rect
       y="282"
       x="-412.5"
       height="48"
       width="350"
       id="rect5391"
       style="fill:#000000;fill-opacity:1;stroke:none" />
    <path
       id="path5396"
       d="m 147.82502,2432.9497 c -1.97175,0 -3.57017,1.7665 -3.57017,3.946 l 0,0.5938 -2.25485,0 0,0.7215 2.25485,0 0,6.7644 c 0,0.6034 -0.14797,1.1675 -0.40448,1.649 l 0.6511,0.3756 c 0.32075,-0.5917 0.50499,-1.2844 0.50499,-2.0246 l 0,-6.7644 2.25485,0 0,-0.7215 -2.25485,0 0,-0.5938 c 0,-1.7643 1.26192,-3.1945 2.81856,-3.1945 l 0,-0.7515 z"
       style="fill:#000000;fill-opacity:1;stroke:none" />
    <text
       sodipodi:linespacing="100%"
       id="text10027"
       y="2105"
       x="1418"
       style="font-size:1011.31170654px;font-style:normal;font-variant:normal;font-weight:300;font-stretch:normal;text-align:start;line-height:100%;writing-mode:lr-tb;text-anchor:start;opacity:0.59670781;fill:#000000;fill-opacity:1;stroke:none;font-family:Muli;-inkscape-font-specification:Muli Light"
       xml:space="preserve"><tspan
         sodipodi:role="line"
         id="tspan3882"
         x="1418"
         y="2105">sSRr</tspan></text>
    <path
       style="fill:#000000;fill-opacity:1;stroke:none"
       d="m 131.71787,2437.0001 c -1.99954,0 -3.6205,1.7917 -3.6205,4.0017 l 0,4.0016 0.76221,0 0,-4.0016 c 0,-1.7891 1.2797,-3.2394 2.85829,-3.2394 l 0,-0.7623 z"
       id="path10031" />
    <path
       sodipodi:nodetypes="cszccsccccccc"
       id="path10546"
       d="m 137.18773,2437 c -1.99874,0 -3.61904,1.7909 -3.61904,4 0,2.2091 1.48825,4 3.61904,4 2.13079,0 2.57923,-0.3818 3.23809,-1.1428 l -0.52619,-0.5562 c -0.52142,0.6334 -1.37857,0.9371 -2.7119,0.9371 -1.52152,0 -2.76487,-1.348 -2.8519,-3.0476 l 6.46666,0 c 0.004,-2.24 -1.58048,-4.1905 -3.61476,-4.1905 z m 0,0.7619 c 1.40592,0 2.57473,1.1509 2.81285,2.6667 l -5.6257,0 c 0.23812,-1.5158 1.40693,-2.6667 2.81285,-2.6667 z"
       style="fill:#000000;fill-opacity:1;stroke:none" />
    <path
       id="path3751"
       style="font-size:890.6105957px;font-style:normal;font-variant:normal;font-weight:normal;font-stretch:normal;text-align:start;line-height:100%;writing-mode:lr-tb;text-anchor:start;opacity:0.59670781;fill:#000000;fill-opacity:1;stroke:none;font-family:Aaargh;-inkscape-font-specification:Aaargh"
       d="m -1272.1295,678.97362 c 69.4673,-6.53084 121.4195,-25.53051 155.8569,-56.99908 35.0302,-32.06159 55.5142,-81.34199 61.4521,-147.84136 -5e-4,-0.59323 -5e-4,-1.18697 0,-1.78122 l 0,-0.89061 0,0 c -0.5942,-62.34217 -16.3283,-110.13823 -47.2024,-143.38831 -39.781,-42.15487 -106.5767,-64.71698 -200.3874,-67.6864 -38.5933,-1.18676 -88.7643,2.07881 -150.5131,9.79672 l 0,0 0,0 0,709.81664 44.5305,0 0,-304.58882 c 29.6868,2.969 53.4364,4.75022 71.2488,5.34366 98.5606,92.62371 196.2308,191.48139 293.0109,296.57333 l 58.78032,0 C -1079.7581,872.23623 -1175.3502,772.78481 -1272.1295,678.97362 m -136.2634,-369.6034 c 33.2493,-2.96803 62.9363,-4.15551 89.061,-3.56244 84.9046,2.37563 144.2786,20.18783 178.1222,53.43663 26.1241,24.9377 39.1864,62.3433 39.1868,112.21694 l 0,0 c -1.1879,64.71815 -25.5312,109.5455 -73.03,134.4822 -35.6248,19.59379 -89.3583,29.39049 -161.2006,29.39015 -4.1563,-0.5934 -8.3125,-0.5934 -12.4685,0 -17.8124,-0.5934 -37.7027,-1.78088 -59.6709,-3.56244 l 0,-322.40104" />
    <path
       id="path3753"
       style="font-size:890.6105957px;font-style:normal;font-variant:normal;font-weight:normal;font-stretch:normal;text-align:start;line-height:100%;writing-mode:lr-tb;text-anchor:start;opacity:0.59670781;fill:#000000;fill-opacity:1;stroke:none;font-family:Aaargh;-inkscape-font-specification:Aaargh"
       d="m -764.92674,511.53883 c -21.37481,19.00014 -39.78074,41.56225 -55.21786,67.6864 l 0,-113.99815 -44.53053,0 0,514.77292 44.53053,0 0,-242.24608 c -1.2e-4,-5.34342 1.7811,-18.70256 5.34366,-40.07748 10.6872,-65.90483 35.62427,-116.07585 74.81129,-150.51319 19.59322,-16.62428 41.26472,-29.09282 65.01458,-37.40564 l 0,-45.42114 c -34.43718,9.50035 -64.42104,25.23445 -89.95167,47.20236" />
    <path
       id="path3755"
       style="font-size:890.6105957px;font-style:normal;font-variant:normal;font-weight:normal;font-stretch:normal;text-align:start;line-height:100%;writing-mode:lr-tb;text-anchor:start;opacity:0.59670781;fill:#000000;fill-opacity:0.28630706;stroke:none;font-family:Aaargh;-inkscape-font-specification:Aaargh"
       d="m -625.1912,2601.3852 c -58.8053,-35.583 -88.2183,-68.218 -88.239,-97.9055 0,-5.3432 0.8823,-11.875 2.6582,-19.5952 9.4666,-47.5056 39.137,-71.2758 89.0113,-71.311 8.9059,-0.01 18.7033,0.8779 29.3919,2.6513 21.9707,3.5475 38.5988,8.2857 49.8842,14.2149 14.2541,6.5216 30.5906,18.9788 49.0097,37.3713 l 4.4238,-41.8618 c -34.4621,-35.5998 -81.6768,-53.3791 -141.6443,-53.3377 -71.249,0.05 -113.3813,33.3292 -126.397,99.8368 -1.7747,9.5015 -2.659,18.4081 -2.6532,26.7202 0.027,38.5935 19.9421,74.2038 59.7456,106.8315 37.4229,24.9113 74.5491,49.8223 111.3785,74.7334 39.8011,29.6594 59.7126,59.9263 59.7344,90.8007 0,5.9373 -0.5857,11.8753 -1.7688,17.8134 -10.6477,57.0066 -42.6898,85.5286 -96.1261,85.5658 -46.9056,0.033 -89.964,-17.4525 -129.1753,-52.4558 l -1.7469,48.9848 c 23.1682,17.7961 53.4577,30.2435 90.8683,37.3422 13.0643,2.9595 26.1276,4.4347 39.19,4.4256 36.218,-0.025 66.7892,-9.2497 91.7136,-27.673 27.2985,-19.0188 44.4978,-46.3427 51.5981,-81.9722 2.3655,-13.0638 3.5447,-24.9395 3.5376,-35.6269 -0.02,-27.9056 -10.4285,-54.0229 -31.2261,-78.352 -20.7982,-24.3285 -58.521,-53.3954 -113.1685,-87.2008" />
    <path
       style="fill:#000000;fill-opacity:0.51452284;stroke:none"
       d="m -900.5,2454 c -117.3605,0 -212.5,55.9644 -212.5,125 0,69.0356 95.1395,125 212.5,125 117.36051,0 212.5,-55.9644 212.5,-125 0,-69.0356 -95.13949,-125 -212.5,-125 z m 0.5,51 c 89.47013,0 162,33.3548 162,74.5 0,41.1452 -72.52987,74.5 -162,74.5 -89.47013,0 -162,-33.3548 -162,-74.5 0,-41.1452 72.52987,-74.5 162,-74.5 z"
       id="path3862" />
    <path
       id="path3884"
       d="m -3163.1098,1583.4031 c -117.5025,0 -212.7573,117.6694 -212.7573,262.8171 l 0,262.8172 50.0607,0 0,-262.8172 c 0,-117.4991 72.8411,-212.7573 162.6966,-212.7573 89.8543,0 162.6959,95.2582 162.6959,212.7573 l 0,262.8172 50.0601,0 0,-262.8172 c 0,-145.1477 -95.2541,-262.8171 -212.756,-262.8171 z"
       style="fill:#000000;fill-opacity:1;stroke:none" />
    <path
       style="fill:#000000;fill-opacity:1;stroke:none"
       d="m -2637.4759,2109.0374 c -117.5029,0 -212.7571,-117.6699 -212.7571,-262.8172 l 0,-262.8171 50.06,0 0,262.8171 c 0,117.4987 72.842,212.7571 162.6971,212.7571 89.8546,0 162.6964,-95.2584 162.6964,-212.7571 l 0,-262.8171 50.0602,0 0,262.8171 c 0,145.1473 -95.2542,262.8172 -212.7566,262.8172 z"
       id="path3886" />
    <path
       sodipodi:nodetypes="cszccsccccccc"
       id="path3888"
       d="m -3663.7149,1583.4031 c -131.3255,0 -237.7864,117.6694 -237.7864,262.8171 0,145.1473 97.7845,262.8172 237.7864,262.8172 140.002,0 169.4665,-25.0861 212.7565,-75.0872 l -34.573,-36.5448 c -34.2596,41.6172 -90.578,61.5719 -178.1835,61.5719 -99.9705,0 -181.6638,-88.5696 -187.3823,-200.2407 l 424.8878,0 c 0.2623,-147.1777 -103.8445,-275.3335 -237.5055,-275.3335 z m 0,50.0598 c 92.3751,0 169.1708,75.6192 184.8161,175.2137 l -369.6321,0 c 15.6453,-99.5945 92.441,-175.2137 184.816,-175.2137 z"
       style="fill:#000000;fill-opacity:1;stroke:none" />
    <path
       style="fill:#000000;fill-opacity:1;stroke:none"
       d="m -1798.9644,1320.2639 0,529.9576 c 0,142.9462 104.851,258.8159 234.203,258.8159 129.306,0 234.1437,-115.8697 234.1437,-258.8159 0,-142.9267 -104.8377,-258.829 -234.1437,-258.829 -75.1658,0 -142.0527,39.1468 -184.8854,99.9691 l 0,-371.0977 -49.3176,0 z m 234.203,320.4396 c 102.0782,0 184.859,93.7932 184.859,209.518 0,115.7119 -82.7808,209.5309 -184.859,209.5309 -102.1176,0 -184.8854,-93.819 -184.8854,-209.5309 0,-115.7248 82.7678,-209.518 184.8854,-209.518 z"
       id="path3890" />
    <path
       style="fill:#000000;fill-opacity:1;stroke:none"
       d="m -213.64488,1320.2639 0,529.9576 c 0,142.9462 -104.83118,258.8159 -234.17663,258.8159 -129.33888,0 -234.17006,-115.8697 -234.17006,-258.8159 0,-142.9267 104.83118,-258.829 234.17006,-258.829 75.13942,0 142.02636,39.1468 184.87213,99.9691 l 0,-371.0977 49.3045,0 z m -234.17663,320.4396 c -102.09787,0 -184.87869,93.7932 -184.87869,209.518 0,115.7119 82.78082,209.5309 184.87869,209.5309 102.09788,0 184.87213,-93.819 184.87213,-209.5309 0,-115.7248 -82.77425,-209.518 -184.87213,-209.518 z"
       id="path3892" />
    <path
       sodipodi:nodetypes="cssccccccsssc"
       id="path3894"
       d="m -1035.5344,1598.3637 c -131.3429,0 -237.7957,117.6764 -237.7957,262.8502 0,145.134 106.4528,262.784 237.7957,262.784 92.47871,0 172.66223,-58.378 212.00729,-143.6294 l 26.5077,152.2434 49.32358,-8.5677 -52.44058,-299.9728 c -16.33801,-127.5719 -115.5068,-225.6551 -235.39799,-225.6551 z m 0,50.0732 c 103.65893,0 187.70524,95.2451 187.70524,212.777 0,117.4789 -84.04631,212.7435 -187.70524,212.7435 -103.7057,0 -187.7585,-95.2646 -187.7585,-212.7435 0,-117.5319 84.0528,-212.777 187.7585,-212.777 z"
       style="fill:#000000;fill-opacity:1;stroke:none" />
    <path
       style="fill:#000000;fill-opacity:1;stroke:none"
       d="m -2086.8107,1583.4031 c -131.3265,0 -237.788,117.6694 -237.788,262.8171 0,145.1473 106.4615,262.8172 237.788,262.8172 69.5262,0 132.0768,-32.9971 175.5563,-85.5737 l -35.3868,-35.7299 c -34.3812,43.713 -84.4366,71.2435 -140.1695,71.2435 -103.6789,0 -187.7271,-95.2518 -187.7271,-212.7571 0,-117.5059 84.0482,-212.7573 187.7271,-212.7573 55.5995,0 105.5446,27.4055 139.9195,70.9278 l 35.3236,-35.8218 c -43.4659,-52.3532 -105.8911,-85.1658 -175.2431,-85.1658 z"
       id="path3896"
       sodipodi:nodetypes="cssccsssccc" />
    <path
       style="fill:#000000;fill-opacity:1;stroke:none"
       d="m -3978.7026,1317.2807 c -129.5522,0 -234.5755,116.0667 -234.5755,259.2693 l 0,39.0151 -148.1533,0 0,47.4058 148.1533,0 0,444.4499 c 0,39.646 -9.7221,76.7098 -26.576,108.3464 l 42.7803,24.6785 c 21.0744,-38.877 33.1798,-84.3907 33.1798,-133.0249 l 0,-444.4499 148.1535,0 0,-47.4058 -148.1535,0 0,-39.0151 c 0,-115.9221 82.9136,-209.8921 185.1914,-209.8921 l 0,-49.3772 z"
       id="path3898" />
    <path
       id="path3900"
       d="m -5037.0112,1583.4094 c -131.3783,0 -237.8823,117.7223 -237.8823,262.9287 l 0,262.9226 50.0803,0 0,-262.9226 c 0,-117.5515 84.0821,-212.8426 187.802,-212.8426 l 0,-50.0861 z"
       style="fill:#000000;fill-opacity:1;stroke:none" />
    <path
       style="fill:#000000;fill-opacity:1;stroke:none"
       d="m -4677.6182,1583.4031 c -131.3254,0 -237.7862,117.6694 -237.7862,262.8171 0,145.1473 97.7842,262.8172 237.7862,262.8172 140.0022,0 169.4665,-25.0861 212.7567,-75.0872 l -34.573,-36.5448 c -34.2598,41.6172 -90.5783,61.5719 -178.1837,61.5719 -99.9701,0 -181.6636,-88.5696 -187.3818,-200.2407 l 424.8872,0 c 0.2626,-147.1777 -103.8443,-275.3335 -237.5054,-275.3335 z m 0,50.0598 c 92.3754,0 169.171,75.6192 184.8164,175.2137 l -369.6327,0 c 15.6458,-99.5945 92.4415,-175.2137 184.8163,-175.2137 z"
       id="path3902"
       sodipodi:nodetypes="cszccsccccccc" />
    <path
       id="path3909"
       style="font-size:1011.31170654px;font-style:normal;font-variant:normal;font-weight:300;font-stretch:normal;text-align:start;line-height:100%;writing-mode:lr-tb;text-anchor:start;opacity:0.59670781;fill:#000000;fill-opacity:1;stroke:none;font-family:Muli;-inkscape-font-specification:Muli Light"
       d="m 425,1655 c -45.15588,-25.688 -87.45191,-24.7601 -137.5,-25 -75.67135,-0.5227 -139.05181,33.698 -138.20398,79.8247 0.84837,46.1559 35.68632,58.8191 124.70398,90.8723 89.01765,32.0532 202.53668,64.083 203.3433,158.4866 C 478.14992,2053.5872 362,2105 275,2105 c -87.09191,0 -115.44855,-8.4073 -192.41716,-62.0307 l 30.30794,-39.4176 C 168.81114,2044.989 205.96111,2055.9983 275,2055 c 69.03889,-0.9983 150.39995,-38.718 150.1487,-87.4217 C 424.89747,1918.8798 364.56169,1884.8236 275,1855 185.43831,1825.1764 98.710957,1809.8265 98.59523,1711.7876 98.479503,1613.7488 204.20251,1584.5486 287.5,1580 c 51.56781,0.4862 108.95996,2.4735 153.8204,30.9895 L 425,1655"
       sodipodi:nodetypes="cczzzzcczzzzccc" />
    <path
       d="m -1911.3204,797 c -14.4853,-8.888 -34.402,-15.8013 -59.7503,-20.7398 -25.0198,-4.9375 -52.5082,-7.4066 -82.4654,-7.407 -17.448,4e-4 -33.5789,1.9757 -48.3928,5.9256 -14.8143,3.6217 -27.6533,9.0536 -38.5168,16.2956 -10.5346,6.9137 -18.7647,15.473 -24.6902,25.6778 -5.9258,9.8765 -8.8886,21.234 -8.8885,34.0725 -1e-4,16.4606 2.3043,29.4641 6.9133,39.0106 4.9379,9.5472 12.0157,17.4481 21.2336,23.7026 9.2175,5.926 20.575,10.864 34.0725,14.8141 13.4971,3.6216 28.9696,7.7366 46.4176,12.3452 17.4475,4.2799 36.7059,9.8763 57.7751,16.7893 21.0687,6.5843 43.7837,15.802 68.1451,27.6531 8.8881,4.2799 18.1058,9.5471 27.653,15.8017 9.5465,5.9259 18.2704,13.4976 26.1717,22.715 7.9004,9.2179 14.3199,20.2462 19.2583,33.0849 4.9376,12.5099 7.4067,27.324 7.4071,44.4424 -4e-4,25.3488 -5.9261,47.4054 -17.7769,66.1698 -11.5226,18.4355 -26.8305,33.908 -45.9239,46.4177 -19.0941,12.1805 -40.9861,21.2336 -65.676,27.1592 -24.3613,5.9257 -49.3807,8.8885 -75.0583,8.8885 -17.448,0 -34.7311,-0.9876 -51.8494,-2.9628 -16.7896,-1.646 -32.7559,-4.4443 -47.8991,-8.3947 -15.1435,-4.2796 -29.1346,-9.7115 -41.9734,-16.2955 -12.5098,-6.5841 -23.0443,-14.6496 -31.6035,-24.1965 l 15.308,-46.4176 c 7.5716,8.5594 17.1184,15.9664 28.6406,22.2212 11.522,6.2549 24.0317,11.5222 37.5292,15.8018 13.8263,3.9504 28.3113,6.9133 43.4548,8.8884 15.4723,1.9753 30.9448,2.9629 46.4176,2.9629 20.7395,0 39.8333,-1.9752 57.2813,-5.9257 17.4475,-3.9504 32.4262,-9.7114 44.9363,-17.2832 12.8385,-7.5716 22.7146,-17.1184 29.6282,-28.6406 6.9129,-11.522 10.3695,-24.8547 10.3699,-39.9982 -4e-4,-17.4476 -3.9508,-31.9325 -11.8513,-43.4548 -7.9012,-11.5219 -18.9295,-21.2334 -33.0849,-29.1345 -14.156,-7.9006 -30.7808,-14.6493 -49.8743,-20.2459 -19.094,-5.9255 -39.9984,-12.0157 -62.7131,-18.2708 -24.0321,-7.2422 -45.7594,-14.8139 -65.1822,-22.715 -19.0939,-7.9006 -35.5541,-17.2829 -49.3805,-28.1469 -13.4974,-10.8634 -24.0319,-23.7023 -31.6035,-38.5167 -7.2425,-15.143 -10.8637,-33.5784 -10.8637,-55.3061 0,-22.7146 5.1026,-42.4668 15.308,-59.2566 10.5344,-16.7889 24.3609,-30.78 41.4796,-41.9734 17.1184,-11.1924 36.3767,-19.4224 57.7751,-24.6902 21.7272,-5.5959 43.9484,-8.3942 66.6636,-8.3947 32.92,5e-4 63.2067,2.9634 90.86,8.8885 27.9819,5.9262 50.8615,15.8022 68.6389,29.6283 L -1911.3204,797"
       style="font-size:1011.31170654px;font-style:normal;font-variant:normal;font-weight:300;font-stretch:normal;text-align:start;line-height:100%;writing-mode:lr-tb;text-anchor:start;opacity:0.59670781;fill:#000000;fill-opacity:1;stroke:none;font-family:Muli;-inkscape-font-specification:Muli Light"
       id="path3937" />
    <path
       sodipodi:nodetypes="cczzzzcczzzzccc"
       d="m 124.39722,2438.1444 c -0.6881,-0.3915 -1.33261,-0.3774 -2.09524,-0.381 -1.15308,-0.011 -2.11888,0.5135 -2.10596,1.2165 0.013,0.7032 0.54378,0.8962 1.90024,1.3846 1.35645,0.4884 3.08627,0.9765 3.09856,2.4151 0.0123,1.4385 -1.75761,2.2219 -3.08332,2.2219 -1.32711,0 -1.75921,-0.1281 -2.93207,-0.9453 l 0.46184,-0.6006 c 0.85212,0.6315 1.41821,0.7991 2.47023,0.7839 1.05202,-0.015 2.2918,-0.5899 2.28798,-1.3321 -0.004,-0.742 -0.92323,-1.261 -2.28798,-1.7154 -1.36474,-0.4544 -2.68631,-0.6884 -2.68808,-2.1823 -0.002,-1.4939 1.60927,-1.9389 2.87856,-2.0082 0.78579,0.011 1.66034,0.037 2.34392,0.4722 l -0.24868,0.6707"
       style="font-size:1011.31170654px;font-style:normal;font-variant:normal;font-weight:300;font-stretch:normal;text-align:start;line-height:100%;writing-mode:lr-tb;text-anchor:start;fill:#000000;fill-opacity:1;stroke:none;font-family:Muli;-inkscape-font-specification:Muli Light"
       id="path3941" />
  </g>
</svg>
